# xmcd
#
# Track frame offsets: 
#        150
#        22353
#        39547
#        65535
#        89949
#        123927
#        167059
#        192353
#        233872
#        251525
#        284444
#        309115
#
# Disc length: 4402 seconds
#
# Revision: 3
# Processed by: cddbd v1.5.2PL0 Copyright (c) Steve Scherf et al.
# Submitted via: ExactAudioCopy v0.99pb5
#
DISCID=ad11300c
DTITLE=Various Artist - Millennium Jazz Four
DYEAR=2000
DGENRE=Trip-Hop
TTITLE0=Anima Sound System - The End
TTITLE1=Lemongrass - La Mer
TTITLE2=Koolaking - One Latin (Plaid Edit)
TTITLE3=Freedom Satellite - Soul Samba
TTITLE4=Crazy Penis - Do It Good (Shaboom Mix)
TTITLE5=Aydin The Funki Chile - This?
TTITLE6=Aim - Cold Water Music
TTITLE7=Layo and Bushwacka! - Deep South
TTITLE8=Yonderboi - Padabam
TTITLE9=Format - Klassy
TTITLE10=Anagram - Fusion Thing
TTITLE11=Marcel - Philosophos
EXTD=
EXTT0=
EXTT1=
EXTT2=
EXTT3=
EXTT4=
EXTT5=
EXTT6=
EXTT7=
EXTT8=
EXTT9=
EXTT10=
EXTT11=
PLAYORDER=
